2.2Hzhigh3min_grf.mot
version=1
nRows=30
nColumns 19
inDegrees=yes
endheader
time	1_ground_force_vx	1_ground_force_vy	1_ground_force_vz	1_ground_force_px	1_ground_force_py	1_ground_force_pz	1_ground_torque_x	1_ground_torque_y	1_ground_torque_z	2_ground_force_vx	2_ground_force_vy	2_ground_force_vz	2_ground_force_px	2_ground_force_py	2_ground_force_pz	2_ground_torque_x	2_ground_torque_y	2_ground_torque_z
            0.005000	            0.275771	            1.080074	            0.370802	           -0.180369	            0.006430	           -0.451264	            0.171643	           -0.240478	            0.085425	            0.092083	            0.370978	           -0.655719	           -0.230399	            0.005581	           -0.677930	           -0.262942	           -0.028904	           -0.113091
            0.005500	           -0.045115	            1.620613	            0.419774	           -0.180369	            0.006430	           -0.451264	            0.356815	           -0.101615	           -0.003334	            0.185138	            0.555297	           -0.608174	           -0.230399	            0.005581	           -0.677930	           -0.357148	            0.028078	           -0.282500
            0.006000	            0.320377	            1.622846	           -0.085552	           -0.180369	            0.006430	           -0.451264	            0.265879	            0.101551	            0.088593	            0.559917	            0.556818	           -0.655261	           -0.230399	            0.005581	           -0.677930	           -0.281889	            0.009040	           -0.169498
            0.006500	            0.641862	            2.162526	            0.191106	           -0.180369	            0.006430	           -0.451264	            0.234900	            0.222108	            0.046456	            0.234003	            0.002854	           -0.563237	           -0.230399	            0.005581	           -0.677930	           -0.300562	           -0.028637	           -0.226176
            0.007000	            0.182360	            1.803872	           -0.267861	           -0.180369	            0.006430	           -0.451264	            0.273473	            0.120131	            0.045187	            0.234023	            0.002687	           -0.516309	           -0.230399	            0.005581	           -0.677930	           -0.243873	           -0.122893	           -0.245387
            0.007500	            0.228688	            2.884295	            0.011799	           -0.180369	            0.006430	           -0.451264	            0.223637	           -0.083364	            0.083951	            0.140282	            0.002683	           -0.610125	           -0.230399	            0.005581	           -0.677930	           -0.168766	           -0.113169	           -0.245385
            0.008000	            0.137784	            2.342301	            0.284843	           -0.180369	            0.006430	           -0.451264	            0.212220	           -0.212726	            0.060736	            0.141029	           -0.182135	           -0.423070	           -0.230399	            0.005581	           -0.677930	           -0.319212	           -0.057331	           -0.150868
            0.008500	            0.137949	            1.440972	            0.280978	           -0.180369	            0.006430	           -0.451264	            0.250209	           -0.240207	            0.004162	            0.185159	            0.555130	           -0.561246	           -0.230399	            0.005581	           -0.677930	           -0.263102	           -0.000076	           -0.244941
            0.009000	            0.321467	            1.260545	            0.325606	           -0.180369	            0.006430	           -0.451264	            0.285994	           -0.064651	            0.050247	            0.513773	            0.372166	           -0.562042	           -0.230399	            0.005581	           -0.677930	           -0.263205	            0.028282	           -0.244840
            0.009500	            0.321126	            1.261135	            0.188038	           -0.180369	            0.006430	           -0.451264	            0.198239	            0.156686	            0.164203	            0.515582	           -0.178773	           -0.986366	           -0.230399	            0.005581	           -0.677930	           -0.244104	           -0.056791	           -0.226301
            0.010000	            0.458622	            1.441428	            0.188470	           -0.180369	            0.006430	           -0.451264	            0.216661	            0.240346	            0.076383	            0.324962	            0.740455	           -0.748361	           -0.230399	            0.005581	           -0.677930	           -0.281564	           -0.085352	           -0.207536
            0.010500	            0.183142	            1.261895	            0.004956	           -0.180369	            0.006430	           -0.451264	            0.299686	            0.083091	            0.063781	            0.372497	            0.556309	           -0.702110	           -0.230399	            0.005581	           -0.677930	           -0.225020	           -0.141730	           -0.245463
            0.011000	            0.504465	            1.441436	            0.188356	           -0.180369	            0.006430	           -0.451264	            0.197823	           -0.138374	            0.020366	            0.516452	           -0.364595	           -0.517742	           -0.230399	            0.005581	           -0.677930	           -0.337733	           -0.132954	           -0.169980
            0.011500	            0.183630	            1.080843	            0.187606	           -0.180369	            0.006430	           -0.451264	            0.310817	           -0.268149	            0.062253	            0.282908	           -0.549924	           -0.424444	           -0.230399	            0.005581	           -0.677930	           -0.262797	           -0.066782	           -0.094375
            0.012000	            0.138273	            2.161249	            0.467493	           -0.180369	            0.006430	           -0.451264	            0.260833	           -0.221953	            0.060582	            0.236723	           -0.734241	           -0.425081	           -0.230399	            0.005581	           -0.677930	           -0.338186	           -0.000818	           -0.112957
            0.012500	            0.137589	            2.162428	            0.192358	           -0.180369	            0.006430	           -0.451264	            0.347516	            0.018543	            0.023802	            0.278715	            0.556640	           -0.889782	           -0.230399	            0.005581	           -0.677930	           -0.244470	            0.037937	           -0.282514
            0.013000	            0.182830	            2.343686	           -0.036263	           -0.180369	            0.006430	           -0.451264	            0.282006	            0.240466	            0.008066	            0.373161	            0.372160	           -0.702767	           -0.230399	            0.005581	           -0.677930	           -0.282008	            0.037533	           -0.207097
            0.013500	            0.228952	            1.442170	            0.005615	           -0.180369	            0.006430	           -0.451264	            0.336783	            0.139144	           -0.065710	            0.375902	           -0.365102	           -0.517683	           -0.230399	            0.005581	           -0.677930	           -0.281768	           -0.037820	           -0.282768
            0.014000	            0.321030	            0.540466	            0.093234	           -0.180369	            0.006430	           -0.451264	            0.239723	           -0.018128	           -0.024605	            0.283552	           -0.733905	           -0.472029	           -0.230399	            0.005581	           -0.677930	           -0.206278	           -0.122959	           -0.188853
            0.014500	            0.458361	            1.622086	            0.097531	           -0.180369	            0.006430	           -0.451264	            0.333168	           -0.194075	            0.074225	            0.234064	            0.002352	           -0.422453	           -0.230399	            0.005581	           -0.677930	           -0.300348	           -0.094604	           -0.282962
            0.015000	            0.412761	            2.162285	            0.237531	           -0.180369	            0.006430	           -0.451264	            0.270274	           -0.267405	           -0.078292	            0.326312	            0.371991	           -0.702747	           -0.230399	            0.005581	           -0.677930	           -0.206524	           -0.065907	           -0.282901
            0.015500	            0.275379	            1.981796	            0.282955	           -0.180369	            0.006430	           -0.451264	            0.174817	           -0.147805	            0.029388	            0.559191	            0.741469	           -0.795389	           -0.230399	            0.005581	           -0.677930	           -0.225345	           -0.047338	           -0.207425
            0.016000	            0.183969	            2.341720	            0.422297	           -0.180369	            0.006430	           -0.451264	            0.224758	            0.046682	           -0.067815	            0.375923	           -0.365270	           -0.470755	           -0.230399	            0.005581	           -0.677930	           -0.206705	           -0.000208	           -0.150714
            0.016500	            0.321890	            1.440025	            0.509802	           -0.180369	            0.006430	           -0.451264	            0.296772	            0.249634	            0.051562	            0.517075	           -0.548408	           -0.612256	           -0.230399	            0.005581	           -0.677930	           -0.281922	            0.009309	           -0.244899
            0.017000	            0.228886	            1.802701	            0.007161	           -0.180369	            0.006430	           -0.451264	            0.261786	            0.157052	            0.066127	            0.421341	            0.004033	           -0.704101	           -0.230399	            0.005581	           -0.677930	           -0.262712	           -0.095006	           -0.132177
            0.017500	            0.458167	            1.442214	            0.005046	           -0.180369	            0.006430	           -0.451264	            0.224438	           -0.027556	            0.037619	            0.421402	            0.003531	           -0.563317	           -0.230399	            0.005581	           -0.677930	           -0.337852	           -0.104461	           -0.207579
            0.018000	            0.273818	            1.804283	           -0.359800	           -0.180369	            0.006430	           -0.451264	            0.352540	           -0.203334	            0.047513	            0.185221	            0.554628	           -0.420461	           -0.230399	            0.005581	           -0.677930	           -0.243951	           -0.094736	           -0.188735
            0.018500	            0.275232	            2.162258	            0.237872	           -0.180369	            0.006430	           -0.451264	            0.251719	           -0.258632	            0.009918	            0.421361	            0.003866	           -0.657173	           -0.230399	            0.005581	           -0.677930	           -0.300375	           -0.076035	           -0.188644
            0.019000	           -0.091641	            1.621784	            0.144752	           -0.180369	            0.006430	           -0.451264	            0.293643	           -0.120467	            0.069980	            0.183042	            1.108579	           -0.840843	           -0.230399	            0.005581	           -0.677930	           -0.319264	           -0.038560	           -0.113100
            0.019500	            0.320961	            2.162464	            0.191903	           -0.180369	            0.006430	           -0.451264	            0.291432	            0.129135	            0.126225	            0.282764	           -0.548752	           -0.752940	           -0.230399	            0.005581	           -0.677930	           -0.169304	            0.038007	           -0.225996
